<svg xmlns="http://www.w3.org/2000/svg" xmlns:xlink="http://www.w3.org/1999/xlink" id="Capa_1" x="0px" y="0px" viewBox="0 0 1286.9 304.5" style="enable-background:new 0 0 1286.9 304.5;" xml:space="preserve"><style type="text/css">	.st0{fill:#FFFFFF;}</style><g>	<g>		<g>			<g>				<path class="st0" d="M271.8,258.8l-65.3-47.6c13.8-9.9,26.9-19.3,40.3-29L271.8,258.8z"></path>				<circle class="st0" cx="197.7" cy="75.3" r="30.2"></circle>				<polygon class="st0" points="310.8,119 83.3,118.6 149.4,168.5 128.7,251.3     "></polygon>			</g>			<g>				<g>					<path class="st0" d="M98.1,292.2c-1.6,0-3.3-0.8-4.2-2.3L9.4,151.6L95.5,13.9c1.4-2.3,4.5-3,6.7-1.6c2.3,1.4,3,4.4,1.6,6.7      L20.9,151.7l81.4,133.1c1.4,2.3,0.7,5.3-1.6,6.7C99.8,292,98.9,292.2,98.1,292.2z"></path>				</g>				<g>					<path class="st0" d="M296.1,292.2c-0.9,0-1.7-0.2-2.5-0.7c-2.3-1.4-3-4.4-1.6-6.7l81.4-133.1L290.4,19      c-1.4-2.3-0.7-5.3,1.6-6.7c2.3-1.4,5.3-0.7,6.7,1.6l86.1,137.7l-84.5,138.3C299.3,291.4,297.7,292.2,296.1,292.2z"></path>				</g>			</g>		</g>	</g>	<g>		<path class="st0" d="M428.1,212.2h35.6V90.5h-35.6v-8.3H509v8.3h-35.6v121.7H509v8.3h-80.9V212.2z"></path>		<path class="st0" d="M589.7,90.5h-48.2v-8.3h106v8.3h-48.2v130h-9.7V90.5z"></path>		<path class="st0" d="M669.8,203l14.2-16.8c10.4,9.4,23.9,15.6,38.3,15.6c16,0,24.4-7,24.4-16.6c0-12.2-9.4-15.5-22.8-21.2   l-18.9-8.2c-14.4-5.6-29.3-16.3-29.3-36.4c0-21.8,19.7-38.7,47.7-38.7c16.8,0,32.7,6.5,44,17.5L755,113.7   c-9.3-7.4-18.8-11.7-32.7-11.7c-13,0-21.8,5.9-21.8,16c0,10.7,11,14.6,23.4,19.4l18,7.8c17.5,6.7,29.8,17.1,29.8,37   c0,22.3-18.8,40.9-50.9,40.9C701.6,223.1,683.3,215.7,669.8,203z"></path>		<path class="st0" d="M796.4,168.8c0-33.6,25.6-54,53.2-54c30.8,0,47.9,20.4,47.9,49c0,4.8-0.7,9.5-1.1,12.2h-82.6v-17.1h66.9   l-4.6,5.4c0-20.4-9.6-30.7-25.7-30.7c-17,0-30.2,12.3-30.2,35.3c0,24,14.4,35.4,35.9,35.4c10.8,0,19.7-3.2,28.9-8.4l8.3,15   c-11,7.2-25.3,12.2-40.4,12.2C821.2,223.1,796.4,203.2,796.4,168.8z"></path>		<path class="st0" d="M926.8,117.4h19.8l1.9,15.5h0.8c9.9-10,21.5-18,37.2-18c23.8,0,34.6,15.2,34.6,41.8v63.9h-24.3v-60.7   c0-16.5-5.3-24.1-19.2-24.1c-10.2,0-17.1,4.9-26.5,14.5v70.3h-24.3V117.4z"></path>		<path class="st0" d="M1048.5,207.1l10.6-15.5c12.3,8.2,26.4,13.1,43.2,13.1c14.3,0,21-5.4,21-12.3c0-6.8-4.5-10.5-28.6-15.5   c-27.5-5.8-39.7-15.5-39.7-31.2c0-17.9,16.3-30.8,45.2-30.8c17.1,0,32.7,6.7,43.2,13.6l-11.2,14.9c-10-6.4-21.9-10.3-34.2-10.3   c-13.4,0-18.9,5.2-18.9,11.5c0,7.3,7.6,9.8,26.9,14c33,7.3,41.5,16.1,41.5,32.4c0,17.7-17.1,32.1-48.4,32.1   C1079.8,223.1,1061.3,215.8,1048.5,207.1z"></path>		<path class="st0" d="M1174.4,168.8c0-33.6,25.6-54,53.2-54c30.8,0,47.9,20.4,47.9,49c0,4.8-0.7,9.5-1.1,12.2h-82.6v-17.1h66.9   l-4.6,5.4c0-20.4-9.6-30.7-25.7-30.7c-17,0-30.2,12.3-30.2,35.3c0,24,14.4,35.4,35.9,35.4c10.8,0,19.7-3.2,28.9-8.4l8.3,15   c-11,7.2-25.3,12.2-40.4,12.2C1199.2,223.1,1174.4,203.2,1174.4,168.8z"></path>	</g></g></svg>